<?xml version="1.0" standalone="no"?>
<!DOCTYPE svg PUBLIC "-//W3C//DTD SVG 20010904//EN"
 "http://www.w3.org/TR/2001/REC-SVG-20010904/DTD/svg10.dtd">
<svg version="1.0" xmlns="http://www.w3.org/2000/svg"
 width="1128.000000pt" height="1128.000000pt" viewBox="0 0 1128.000000 1128.000000"
 preserveAspectRatio="xMidYMid meet">
<metadata>
Created by potrace 1.14, written by Peter Selinger 2001-2017
</metadata>
<g transform="translate(0.000000,1128.000000) scale(0.100000,-0.100000)"
fill="#000000" stroke="none">
<path d="M3559 11206 c-2 -2 -40 -7 -84 -10 -44 -4 -95 -9 -113 -11 -70 -9
-175 -25 -206 -31 -11 -2 -34 -6 -51 -9 -58 -10 -221 -47 -275 -63 -30 -9 -61
-17 -67 -18 -34 -6 -252 -82 -358 -124 -159 -64 -417 -189 -515 -251 -14 -9
-73 -46 -131 -82 -89 -56 -313 -216 -329 -236 -3 -3 -27 -24 -55 -46 -103 -82
-334 -307 -425 -414 -25 -29 -53 -63 -64 -75 -10 -11 -30 -37 -45 -56 -14 -19
-28 -37 -32 -40 -12 -11 -140 -190 -192 -270 -125 -193 -254 -441 -337 -650
-42 -105 -125 -347 -134 -391 -3 -13 -10 -40 -16 -59 -5 -19 -13 -48 -16 -65
-3 -16 -9 -46 -14 -65 -16 -62 -59 -307 -65 -372 -4 -35 -8 -74 -10 -88 -22
-131 -22 -560 0 -770 12 -115 33 -251 55 -359 11 -54 22 -107 25 -119 20 -104
113 -398 174 -550 68 -171 200 -433 281 -562 9 -14 232 -402 285 -495 12 -22
104 -182 205 -355 100 -173 196 -340 213 -370 16 -30 41 -72 54 -92 12 -21 23
-40 23 -43 0 -3 9 -18 19 -33 15 -21 355 -609 414 -716 7 -11 14 -23 17 -26 3
-3 15 -23 27 -45 11 -22 29 -54 40 -72 10 -17 44 -78 77 -135 32 -57 67 -115
77 -130 11 -15 19 -29 19 -32 0 -3 14 -29 31 -58 18 -29 82 -141 144 -248 467
-812 509 -879 731 -1145 326 -392 741 -719 1214 -956 272 -136 619 -260 868
-309 26 -5 58 -12 72 -15 40 -9 233 -42 250 -43 8 0 33 -3 55 -5 22 -3 67 -9
100 -13 129 -16 697 -9 801 10 10 2 46 7 79 11 32 4 68 9 80 11 11 2 34 6 50
9 17 2 55 9 85 15 30 7 74 16 96 20 155 32 419 116 609 193 142 57 384 178
503 250 51 31 95 57 97 57 2 0 38 20 79 45 42 25 81 45 85 45 5 0 11 4 13 9 2
5 26 20 53 35 28 14 57 31 65 36 28 18 243 140 247 140 2 0 16 8 31 19 22 15
323 189 467 271 29 16 124 71 155 90 8 5 42 24 75 43 33 19 103 59 155 90 90
52 589 340 654 377 191 108 363 211 416 248 339 237 586 550 737 937 37 95 78
225 86 272 3 15 8 39 11 53 8 35 16 79 22 120 2 19 7 51 10 70 10 60 12 341 3
420 -12 105 -16 127 -28 190 -7 30 -14 68 -17 83 -11 64 -95 302 -139 394 -40
84 -132 246 -157 278 -4 6 -39 51 -78 102 -89 117 -199 229 -341 348 -49 40
-207 143 -289 187 -204 111 -471 200 -700 233 -78 11 -442 14 -510 5 -118 -18
-130 -20 -220 -39 -142 -32 -303 -89 -444 -161 -110 -55 -445 -246 -791 -449
-44 -26 -87 -50 -95 -54 -8 -4 -28 -15 -45 -26 -27 -16 -573 -332 -655 -378
-19 -11 -60 -35 -90 -53 -30 -18 -71 -42 -90 -53 -34 -19 -251 -144 -721 -415
-584 -337 -974 -474 -1586 -557 -108 -15 -207 -19 -438 -20 -143 0 -296 4
-340 8 -80 8 -272 33 -310 41 -11 2 -40 7 -65 11 -68 11 -65 10 -224 50 -173
43 -397 116 -531 175 -11 4 -49 21 -85 36 -266 116 -660 353 -673 406 -3 13
-9 59 -12 103 -4 44 -9 83 -11 86 -3 6 -17 283 -17 359 0 58 14 293 18 300 1
3 6 30 9 60 30 259 122 554 255 820 138 274 280 470 501 691 328 328 695 545
1149 679 41 12 83 23 95 26 12 2 41 8 66 14 64 14 96 20 175 31 39 5 84 12
100 14 91 14 563 17 3010 19 1480 1 2701 5 2715 8 14 4 43 9 65 12 39 5 65 10
115 21 14 4 36 8 50 11 57 12 233 75 321 116 147 69 339 193 437 282 196 180
336 362 442 576 48 96 110 253 126 319 23 95 43 195 49 236 3 28 9 66 12 85
12 75 4 367 -12 445 -3 11 -7 36 -9 55 -16 114 -85 327 -149 460 -261 547
-765 931 -1357 1035 -19 4 -48 9 -65 13 -31 7 -6108 15 -6116 8z"/>
</g>
</svg>
